<svg width="163" height="30" viewBox="0 0 163 30" fill="none" xmlns="http://www.w3.org/2000/svg">
<path d="M33.2888 28.555V11.2865C33.2888 5.05727 28.1867 0.000924045 21.9011 0.000924045H11.5378C5.25221 -0.0779273 0.0804971 4.89956 0.000932405 11.1387C-0.0786323 17.3679 4.94389 22.4933 11.2395 22.5721C11.3389 22.5721 11.4384 22.5721 11.5378 22.5721H22.7564C22.7564 22.5721 23.6615 22.6214 24.2184 22.8284C24.7456 23.0157 25.3324 23.4789 25.3324 23.4789L32.2644 29.1365C32.2644 29.1365 32.891 29.6786 33.1198 29.5603C33.3485 29.442 33.2888 28.555 33.2888 28.555ZM11.866 13.5929C11.866 14.342 11.2096 14.9531 10.3841 14.9531C9.55865 14.9531 8.90224 14.342 8.90224 13.5929V8.74357C8.90224 7.99448 9.56859 7.38338 10.3841 7.38338C11.1997 7.38338 11.866 7.99448 11.866 8.74357V13.5929ZM18.2014 15.8796C18.2014 16.6287 17.545 17.2398 16.7195 17.2398C15.894 17.2398 15.2376 16.6287 15.2376 15.8796V6.45688C15.2376 5.70779 15.9039 5.09669 16.7195 5.09669C17.535 5.09669 18.2014 5.70779 18.2014 6.45688V15.8796ZM24.5467 13.5929C24.5467 14.342 23.8803 14.9531 23.0648 14.9531C22.2492 14.9531 21.5829 14.342 21.5829 13.5929V8.74357C21.5829 7.99448 22.2492 7.38338 23.0648 7.38338C23.8803 7.38338 24.5467 7.99448 24.5467 8.74357V13.5929Z" fill="white"/>
<path d="M39.7635 18.7772C39.5646 18.9743 39.2961 19.0729 39.0176 19.0729C38.4507 19.0729 37.9833 18.6195 37.9833 18.0576V7.02831C37.9833 6.46649 38.4408 6.00324 39.0077 6.00324H39.0176C39.2961 6.00324 39.5646 6.10181 39.7635 6.29893C39.9625 6.48621 40.0818 6.75233 40.0719 7.02831V13.4941L43.9307 9.65997C44.1197 9.46285 44.3882 9.35442 44.6667 9.36428C44.9452 9.36428 45.2137 9.46285 45.4126 9.65997C45.6115 9.84725 45.7309 10.1134 45.7209 10.3893C45.7209 10.6653 45.6115 10.9315 45.4027 11.1187L42.5781 13.9179L45.4822 17.3677C45.7508 17.6732 45.8005 18.1266 45.5916 18.4815C45.3927 18.8757 45.1043 19.0729 44.7264 19.0729C44.3484 19.0729 44.06 18.9447 43.881 18.6983L41.1161 15.3767L40.0818 16.4018V18.0478C40.0818 18.3238 39.9625 18.5899 39.7635 18.7772Z" fill="white"/>
<path d="M52.6429 19.132C51.4196 19.1517 50.246 18.6491 49.4205 17.7521C47.6601 15.8893 47.6601 12.9915 49.4304 11.1286C50.3156 10.2021 51.3798 9.73889 52.623 9.73889C53.8662 9.73889 54.9204 10.212 55.7956 11.1484C56.6509 12.0551 57.1283 13.2576 57.1084 14.4995C57.1084 15.7907 56.6708 16.8651 55.7856 17.7127C55.0099 18.6392 53.8562 19.1616 52.6429 19.132ZM50.8328 12.479C50.3753 13.0014 50.1565 13.6519 50.1565 14.4207C50.1366 15.1402 50.3753 15.84 50.8328 16.4018C51.8273 17.3185 53.3788 17.3185 54.3734 16.4018C54.8607 15.8597 55.1292 15.15 55.1094 14.4207C55.1094 13.6519 54.8607 13.0014 54.3734 12.479C53.8363 12.0059 53.2396 11.7693 52.6031 11.7693C51.9666 11.7693 51.3798 12.0059 50.8328 12.479Z" fill="white"/>
<path d="M61.3155 19.0733L61.1265 19.0536C60.8978 18.9945 60.6989 18.8762 60.5397 18.6988C60.3905 18.5312 60.311 18.3045 60.311 18.0877V10.7446C60.301 10.4785 60.4104 10.2124 60.5994 10.0251C60.7884 9.83782 61.037 9.7294 61.3055 9.73926C61.7431 9.73926 62.0515 9.92653 62.2106 10.3011C62.8173 9.93639 63.5135 9.73926 64.2296 9.73926C65.433 9.73926 66.4176 10.1729 67.1834 11.0305C67.9293 10.1729 68.8742 9.73926 70.0279 9.73926C71.1816 9.73926 72.1463 10.1237 72.9121 10.8925C73.658 11.6218 74.0758 12.6272 74.0559 13.6621V18.0877C74.0559 18.6298 73.6083 19.0733 73.0613 19.0733C72.7928 19.0733 72.5342 18.9747 72.3452 18.7875C72.1463 18.6101 72.0468 18.3538 72.0468 18.0877V13.6621C72.0568 13.1496 71.8479 12.6568 71.4799 12.3019C71.1318 11.9372 70.6445 11.7401 70.1373 11.7401C69.63 11.7303 69.1427 11.9274 68.7946 12.2822C68.4167 12.6272 68.1979 13.1003 68.178 13.603V18.0877C68.178 18.6298 67.7304 19.0733 67.1834 19.0733C66.9149 19.0733 66.6563 18.9649 66.4673 18.7776C66.2684 18.6002 66.159 18.3538 66.159 18.0877V13.603C66.1292 12.5681 65.2738 11.7401 64.2296 11.7401C63.7223 11.7303 63.235 11.9372 62.8869 12.3019C62.5189 12.6568 62.31 13.1496 62.32 13.6621V18.0877L62.3001 18.2158V18.2749L62.2404 18.3834V18.4819C62.0515 18.8762 61.7431 19.0733 61.3155 19.0733Z" fill="white"/>
<path d="M79.2375 19.0733L79.0486 19.0536C78.8198 18.9944 78.6209 18.8762 78.4618 18.6987C78.3126 18.5312 78.233 18.3045 78.233 18.0876V10.7446C78.2231 10.4785 78.3325 10.2124 78.5214 10.0251C78.7104 9.83782 78.959 9.7294 79.2276 9.73926C79.6652 9.73926 79.9735 9.92653 80.1326 10.3011C80.7393 9.93639 81.4355 9.73926 82.1516 9.73926C83.355 9.73926 84.3396 10.1729 85.1154 11.0304C85.8613 10.1729 86.8062 9.73926 87.9599 9.73926C89.1136 9.73926 90.0783 10.1237 90.8441 10.8925C91.59 11.6218 92.0078 12.6272 91.9879 13.6621V18.0876C91.9879 18.6297 91.5403 19.0733 90.9933 19.0733C90.7248 19.0733 90.4662 18.9747 90.2772 18.7874C90.0783 18.61 89.9788 18.3538 89.9788 18.0876V13.6621C89.9888 13.1496 89.7799 12.6568 89.4119 12.3019C89.0638 11.9372 88.5765 11.7401 88.0693 11.7401C87.562 11.7303 87.0747 11.9274 86.7266 12.2822C86.3586 12.6272 86.1299 13.1003 86.1199 13.603V18.0876C86.1199 18.3538 86.0205 18.6002 85.8315 18.7874C85.6525 18.9747 85.3939 19.0831 85.1353 19.0733C84.8668 19.0733 84.6082 18.9649 84.4192 18.7776C84.2203 18.6002 84.1109 18.3538 84.1109 18.0876V13.603C84.0811 12.568 83.2257 11.7401 82.1814 11.7401C81.6742 11.7303 81.1869 11.9372 80.8388 12.3019C80.4708 12.6568 80.2619 13.1496 80.2719 13.6621V18.0876L80.252 18.2158V18.2749L80.1923 18.3833V18.4819C79.9735 18.8762 79.6652 19.0733 79.2375 19.0733Z" fill="white"/>
<path d="M103.863 15.1896C103.863 16.2443 103.475 17.1609 102.689 17.9297C101.953 18.669 100.949 19.0829 99.9044 19.0731C97.7362 19.0632 95.9858 17.3285 95.9759 15.1896V10.7247C95.9759 10.4684 96.0853 10.2121 96.2643 10.0347C96.6422 9.65032 97.2589 9.63061 97.6467 10.0052C97.6567 10.015 97.6666 10.0249 97.6766 10.0347C97.8655 10.2121 97.965 10.4684 97.965 10.7247V15.1896C97.955 16.2246 98.7905 17.0821 99.8348 17.0919C99.8546 17.0919 99.8646 17.0919 99.8845 17.0919C100.402 17.1018 100.899 16.9047 101.267 16.54C101.645 16.1851 101.864 15.7022 101.864 15.1896V10.7247C101.864 10.4684 101.963 10.222 102.142 10.0347C102.321 9.84745 102.57 9.73903 102.828 9.73903C103.097 9.73903 103.355 9.84745 103.544 10.0347C103.743 10.2121 103.853 10.4586 103.853 10.7247L103.863 15.1896Z" fill="white"/>
<path d="M109.74 18.0875C109.74 18.3536 109.621 18.6099 109.422 18.7873C109.223 18.9746 108.965 19.0731 108.696 19.0731C108.149 19.0731 107.712 18.6296 107.712 18.0875V10.7247C107.722 10.1727 108.169 9.7292 108.726 9.73905C109.114 9.73905 109.462 9.96575 109.631 10.3206C110.228 9.93618 110.924 9.73905 111.63 9.73905C113.798 9.73905 115.559 11.4738 115.569 13.6225V18.0875C115.569 18.3536 115.469 18.6 115.29 18.7873C115.111 18.9746 114.862 19.083 114.604 19.0731C114.335 19.0731 114.087 18.9746 113.898 18.7873C113.699 18.6099 113.599 18.3536 113.599 18.0875V13.6225C113.609 13.1198 113.4 12.6369 113.023 12.2919C112.655 11.9272 112.157 11.7301 111.65 11.7399C111.143 11.7301 110.655 11.9272 110.297 12.2919C109.939 12.6467 109.74 13.1297 109.75 13.6225L109.74 18.0875Z" fill="white"/>
<path d="M121.317 7.00875V7.403C121.327 7.67898 121.218 7.93525 121.029 8.13238C120.84 8.32951 120.581 8.43793 120.313 8.42807C119.746 8.42807 119.288 7.96482 119.288 7.403V7.00875C119.288 6.74262 119.388 6.48636 119.587 6.29908C119.776 6.10196 120.044 6.00339 120.313 6.00339C120.86 5.99353 121.317 6.42722 121.317 6.97918C121.307 6.98903 121.307 6.99889 121.317 7.00875ZM119.567 10.0445C119.974 9.66012 120.611 9.66012 121.019 10.0445C121.218 10.2417 121.317 10.5078 121.307 10.7838V18.0677C121.307 18.6196 120.86 19.073 120.303 19.073C120.034 19.073 119.766 18.9646 119.577 18.7773C119.378 18.59 119.278 18.3338 119.278 18.0677V10.7838C119.268 10.5078 119.378 10.2417 119.567 10.0445Z" fill="white"/>
<path d="M125.305 17.703C124.361 16.7864 123.893 15.6923 123.893 14.411C123.893 13.1296 124.361 12.0356 125.305 11.1288C126.2 10.2417 127.414 9.74887 128.677 9.74887C129.761 9.74887 130.815 10.1136 131.671 10.7739C131.879 10.9316 132.019 11.1781 132.048 11.4343C132.088 11.7004 132.019 11.9666 131.85 12.1736C131.69 12.3805 131.452 12.5185 131.193 12.5481C130.935 12.5875 130.666 12.5087 130.467 12.3411C129.92 11.9469 129.264 11.7399 128.587 11.7399C127.891 11.7399 127.265 12.006 126.718 12.5382C126.161 13.0705 125.892 13.7013 125.892 14.4208C125.892 15.1305 126.191 15.8106 126.708 16.2935C127.255 16.8258 127.881 17.0919 128.587 17.0919C129.264 17.1018 129.93 16.8948 130.477 16.4907C130.676 16.333 130.935 16.264 131.193 16.3034C131.462 16.333 131.7 16.471 131.859 16.6779C132.029 16.8751 132.098 17.1412 132.058 17.3975C132.019 17.6636 131.889 17.91 131.68 18.0776C130.756 18.7379 129.751 19.0632 128.687 19.0632C127.424 19.0928 126.2 18.5999 125.305 17.703Z" fill="white"/>
<path d="M135.609 17.7127C134.744 16.8059 134.316 15.702 134.316 14.4207C134.316 13.1295 134.744 12.0256 135.609 11.1188C136.424 10.2219 137.588 9.71918 138.801 9.74875C139.706 9.74875 140.582 10.0444 141.308 10.5668C141.367 10.3401 141.487 10.1331 141.666 9.97544C141.845 9.81774 142.073 9.73889 142.312 9.73889C142.571 9.73889 142.819 9.84731 142.988 10.0346C143.177 10.2219 143.287 10.4781 143.277 10.7442V18.0872C143.277 18.3534 143.177 18.5998 142.988 18.7871C142.809 18.9743 142.571 19.0729 142.312 19.0729C142.073 19.0827 141.845 19.0039 141.666 18.8462C141.487 18.6983 141.367 18.4914 141.308 18.2647C140.582 18.787 139.696 19.0729 138.801 19.063C137.588 19.0926 136.424 18.5998 135.609 17.7127ZM136.335 14.4207C136.335 15.1698 136.564 15.8104 137.021 16.3131C137.469 16.8158 138.115 17.1016 138.791 17.0819C139.468 17.1016 140.124 16.8158 140.582 16.3131C141.049 15.8006 141.308 15.1205 141.288 14.4305C141.308 13.7307 141.049 13.0506 140.572 12.5282C140.124 12.0157 139.478 11.7299 138.791 11.7397C138.115 11.72 137.469 12.0059 137.031 12.5184C136.564 13.0309 136.335 13.6617 136.335 14.4207Z" fill="white"/>
<path d="M150.159 9.73883C150.438 9.72897 150.706 9.83739 150.905 10.0345C151.104 10.2218 151.224 10.4781 151.214 10.754C151.204 11.3257 150.736 11.789 150.159 11.789H149.692V17.003C149.97 17.003 150.239 17.1114 150.428 17.3086C150.627 17.5057 150.736 17.7718 150.726 18.0478C150.726 18.6096 150.269 19.0729 149.702 19.0729H149.692C148.538 19.0729 147.603 18.1464 147.603 17.003V11.789H147.056C146.479 11.8087 146.002 11.3651 145.992 10.7935C145.982 10.2218 146.42 9.74868 146.997 9.73883C147.017 9.73883 147.036 9.73883 147.056 9.73883H147.603V7.02831C147.603 6.75233 147.713 6.48621 147.912 6.29893C148.111 6.10181 148.379 6.00324 148.658 6.00324C149.224 6.00324 149.692 6.45664 149.692 7.01845V9.73883H150.159Z" fill="white"/>
<path d="M162.999 14.1644C163.009 14.4108 162.91 14.6572 162.721 14.8248C162.522 15.0022 162.263 15.0909 161.995 15.0811H155.998C156.107 15.6133 156.326 16.0273 156.634 16.3131C157.032 16.7764 157.629 17.0523 158.395 17.141C159.16 17.2298 159.837 17.0819 160.404 16.6877C160.602 16.4905 160.871 16.3821 161.159 16.392C161.478 16.392 161.696 16.4708 161.816 16.6384C162.164 17.0228 162.164 17.4269 161.816 17.8507C160.911 18.6688 159.807 19.0828 158.494 19.0729C157.181 19.063 156.077 18.6097 155.192 17.693C153.392 15.8597 153.392 12.9422 155.192 11.1089C156.077 10.1923 157.151 9.73889 158.404 9.73889C159.658 9.73889 160.722 10.143 161.577 10.9611C162.442 11.7792 162.91 12.8141 162.979 14.0757L162.999 14.1644ZM158.454 11.513C157.728 11.5525 157.141 11.7792 156.704 12.1833C156.266 12.5972 155.998 13.0309 155.908 13.4942H161.239C161.13 13.0605 160.821 12.6367 160.324 12.2227C159.827 11.8087 159.21 11.5722 158.454 11.513Z" fill="white"/>
</svg>
